<?xml version="1.0" encoding="iso-8859-1"?>
<!-- Uploaded to: SVG Repo, www.svgrepo.com, Generator: SVG Repo Mixer Tools -->
<svg height="800px" width="800px" version="1.1" id="Layer_1" xmlns="http://www.w3.org/2000/svg" xmlns:xlink="http://www.w3.org/1999/xlink" 
	 viewBox="0 0 512 512" xml:space="preserve">
<g transform="translate(1 1)">
	<g>
		<polygon style="fill:#FDCC00;" points="195.267,109.933 314.733,109.933 314.733,41.667 195.267,41.667 		"/>
		<polygon style="fill:#FDCC00;" points="297.667,161.133 212.333,161.133 195.267,109.933 314.733,109.933 		"/>
	</g>
	<g>
		<polygon style="fill:#00DA6C;" points="229.4,195.267 280.6,195.267 280.6,161.133 229.4,161.133 		"/>
		<polygon style="fill:#00DA6C;" points="212.333,297.667 297.667,297.667 297.667,263.533 212.333,263.533 		"/>
	</g>
	<g>
		<polygon style="fill:#FFE100;" points="7.533,502.467 502.467,502.467 502.467,297.667 7.533,297.667 		"/>
		<polygon style="fill:#FFE100;" points="58.733,7.533 58.733,297.667 92.867,297.667 92.867,41.667 417.133,41.667 
			417.133,297.667 451.267,297.667 451.267,7.533 		"/>
	</g>
	<g>
		<polygon style="fill:#FFA800;" points="485.4,502.467 502.467,502.467 502.467,297.667 485.4,297.667 		"/>
		<polygon style="fill:#FFA800;" points="434.2,297.667 451.267,297.667 451.267,7.533 434.2,7.533 		"/>
	</g>
	<g>
		<polygon style="fill:#FFFFFF;" points="7.533,502.467 24.6,502.467 24.6,297.667 7.533,297.667 		"/>
		<polygon style="fill:#FFFFFF;" points="58.733,297.667 75.8,297.667 75.8,7.533 58.733,7.533 		"/>
	</g>
	<g>
		<polygon style="fill:#00DA6C;" points="195.267,383 229.4,383 229.4,340.333 195.267,340.333 		"/>
		<polygon style="fill:#00DA6C;" points="280.6,383 314.733,383 314.733,340.333 280.6,340.333 		"/>
		<polygon style="fill:#00DA6C;" points="195.267,459.8 229.4,459.8 229.4,417.133 195.267,417.133 		"/>
		<polygon style="fill:#00DA6C;" points="280.6,459.8 314.733,459.8 314.733,417.133 280.6,417.133 		"/>
	</g>
	<g>
		<polygon style="fill:#63D3FD;" points="50.2,408.6 152.6,408.6 152.6,340.333 50.2,340.333 		"/>
		<polygon style="fill:#63D3FD;" points="357.4,408.6 459.8,408.6 459.8,340.333 357.4,340.333 		"/>
	</g>
	<path d="M314.733,118.467H195.267c-5.12,0-8.533-3.413-8.533-8.533V41.667c0-5.12,3.413-8.533,8.533-8.533h119.467
		c5.12,0,8.533,3.413,8.533,8.533v68.267C323.267,115.053,319.853,118.467,314.733,118.467z M203.8,101.4h102.4V50.2H203.8V101.4z"
		/>
	<path d="M280.6,203.8h-51.2c-5.12,0-8.533-3.413-8.533-8.533v-34.133c0-5.12,3.413-8.533,8.533-8.533h51.2
		c5.12,0,8.533,3.413,8.533,8.533v34.133C289.133,200.387,285.72,203.8,280.6,203.8z M237.933,186.733h34.133v-17.067h-34.133
		V186.733z"/>
	<path d="M297.667,169.667h-85.333c-3.413,0-6.827-2.56-7.68-5.973l-17.067-51.2c-0.853-2.56-0.853-5.12,0.853-7.68
		c1.707-2.56,4.267-3.413,6.827-3.413h119.467c2.56,0,5.12,1.707,6.827,3.413c1.707,2.56,1.707,5.12,0.853,7.68l-17.067,51.2
		C304.493,167.107,301.08,169.667,297.667,169.667z M218.307,152.6h73.387l11.093-34.133h-95.573L218.307,152.6z"/>
	<path d="M502.467,511H7.533C2.413,511-1,507.587-1,502.467v-204.8c0-5.12,3.413-8.533,8.533-8.533h494.933
		c5.12,0,8.533,3.413,8.533,8.533v204.8C511,507.587,507.587,511,502.467,511z M16.067,493.933h477.867V306.2H16.067V493.933z"/>
	<path d="M152.6,417.133H50.2c-5.12,0-8.533-3.413-8.533-8.533v-68.267c0-5.12,3.413-8.533,8.533-8.533h102.4
		c5.12,0,8.533,3.413,8.533,8.533V408.6C161.133,413.72,157.72,417.133,152.6,417.133z M58.733,400.067h85.333v-51.2H58.733V400.067
		z"/>
	<path d="M50.2,468.333c-5.12,0-8.533-3.413-8.533-8.533v-17.067c0-5.12,3.413-8.533,8.533-8.533s8.533,3.413,8.533,8.533V459.8
		C58.733,464.92,55.32,468.333,50.2,468.333z"/>
	<path d="M152.6,468.333c-5.12,0-8.533-3.413-8.533-8.533v-17.067c0-5.12,3.413-8.533,8.533-8.533c5.12,0,8.533,3.413,8.533,8.533
		V459.8C161.133,464.92,157.72,468.333,152.6,468.333z"/>
	<path d="M118.467,468.333c-5.12,0-8.533-3.413-8.533-8.533v-17.067c0-5.12,3.413-8.533,8.533-8.533s8.533,3.413,8.533,8.533V459.8
		C127,464.92,123.587,468.333,118.467,468.333z"/>
	<path d="M84.333,468.333c-5.12,0-8.533-3.413-8.533-8.533v-17.067c0-5.12,3.413-8.533,8.533-8.533s8.533,3.413,8.533,8.533V459.8
		C92.867,464.92,89.453,468.333,84.333,468.333z"/>
	<path d="M459.8,417.133H357.4c-5.12,0-8.533-3.413-8.533-8.533v-68.267c0-5.12,3.413-8.533,8.533-8.533h102.4
		c5.12,0,8.533,3.413,8.533,8.533V408.6C468.333,413.72,464.92,417.133,459.8,417.133z M365.933,400.067h85.333v-51.2h-85.333
		V400.067z"/>
	<path d="M357.4,468.333c-5.12,0-8.533-3.413-8.533-8.533v-17.067c0-5.12,3.413-8.533,8.533-8.533s8.533,3.413,8.533,8.533V459.8
		C365.933,464.92,362.52,468.333,357.4,468.333z"/>
	<path d="M459.8,468.333c-5.12,0-8.533-3.413-8.533-8.533v-17.067c0-5.12,3.413-8.533,8.533-8.533s8.533,3.413,8.533,8.533V459.8
		C468.333,464.92,464.92,468.333,459.8,468.333z"/>
	<path d="M425.667,468.333c-5.12,0-8.533-3.413-8.533-8.533v-17.067c0-5.12,3.413-8.533,8.533-8.533s8.533,3.413,8.533,8.533V459.8
		C434.2,464.92,430.787,468.333,425.667,468.333z"/>
	<path d="M391.533,468.333c-5.12,0-8.533-3.413-8.533-8.533v-17.067c0-5.12,3.413-8.533,8.533-8.533s8.533,3.413,8.533,8.533V459.8
		C400.067,464.92,396.653,468.333,391.533,468.333z"/>
	<path d="M229.4,391.533h-34.133c-5.12,0-8.533-3.413-8.533-8.533v-42.667c0-5.12,3.413-8.533,8.533-8.533H229.4
		c5.12,0,8.533,3.413,8.533,8.533V383C237.933,388.12,234.52,391.533,229.4,391.533z M203.8,374.467h17.067v-25.6H203.8V374.467z"/>
	<path d="M314.733,391.533H280.6c-5.12,0-8.533-3.413-8.533-8.533v-42.667c0-5.12,3.413-8.533,8.533-8.533h34.133
		c5.12,0,8.533,3.413,8.533,8.533V383C323.267,388.12,319.853,391.533,314.733,391.533z M289.133,374.467H306.2v-25.6h-17.067
		V374.467z"/>
	<path d="M229.4,468.333h-34.133c-5.12,0-8.533-3.413-8.533-8.533v-42.667c0-5.12,3.413-8.533,8.533-8.533H229.4
		c5.12,0,8.533,3.413,8.533,8.533V459.8C237.933,464.92,234.52,468.333,229.4,468.333z M203.8,451.267h17.067v-25.6H203.8V451.267z"
		/>
	<path d="M314.733,468.333H280.6c-5.12,0-8.533-3.413-8.533-8.533v-42.667c0-5.12,3.413-8.533,8.533-8.533h34.133
		c5.12,0,8.533,3.413,8.533,8.533V459.8C323.267,464.92,319.853,468.333,314.733,468.333z M289.133,451.267H306.2v-25.6h-17.067
		V451.267z"/>
	<path d="M451.267,306.2h-34.133c-5.12,0-8.533-3.413-8.533-8.533V50.2H101.4v247.467c0,5.12-3.413,8.533-8.533,8.533H58.733
		c-5.12,0-8.533-3.413-8.533-8.533V7.533C50.2,2.413,53.613-1,58.733-1h392.533c5.12,0,8.533,3.413,8.533,8.533v290.133
		C459.8,302.787,456.387,306.2,451.267,306.2z M425.667,289.133h17.067V16.067H67.267v273.067h17.067V41.667
		c0-5.12,3.413-8.533,8.533-8.533h324.267c5.12,0,8.533,3.413,8.533,8.533V289.133z"/>
	<path d="M297.667,306.2h-85.333c-5.12,0-8.533-3.413-8.533-8.533v-34.133c0-5.12,3.413-8.533,8.533-8.533h85.333
		c5.12,0,8.533,3.413,8.533,8.533v34.133C306.2,302.787,302.787,306.2,297.667,306.2z M220.867,289.133h68.267v-17.067h-68.267
		V289.133z"/>
</g>
</svg>